<svg width="59" height="31" viewBox="0 0 59 31" fill="none" xmlns="http://www.w3.org/2000/svg">
<path d="M20.9048 24.2321H7.14453V15.6368H20.8918L20.9048 24.2321ZM14.0095 16.3264C12.835 16.3276 11.679 16.6225 10.6441 17.1849C9.60916 17.7473 8.72734 18.5598 8.07692 19.5502C7.99086 19.6508 7.9435 19.7794 7.9435 19.9125C7.9435 20.0456 7.99086 20.1743 8.07692 20.2749C8.73152 21.2607 9.61501 22.0688 10.6499 22.6283C11.6847 23.1877 12.8393 23.4814 14.0124 23.4836C15.1855 23.4857 16.3411 23.1963 17.378 22.6407C18.4149 22.0851 19.3013 21.2803 19.9594 20.2968C20.0533 20.1905 20.1052 20.0529 20.1052 19.9103C20.1052 19.7677 20.0533 19.6301 19.9594 19.5238C19.3031 18.5374 18.4168 17.7301 17.379 17.1732C16.3413 16.6162 15.184 16.3269 14.0095 16.3308V16.3264Z" fill="white"/>
<path d="M14.0485 14.833C12.8816 14.8307 11.7326 14.5417 10.7001 13.991C9.66754 13.4402 8.78232 12.644 8.12029 11.6707C8.00991 11.5518 7.94846 11.3948 7.94846 11.2315C7.94846 11.0683 8.00991 10.9113 8.12029 10.7923C8.78196 9.8208 9.66776 9.02751 10.7008 8.48135C11.7339 7.93519 12.8829 7.65266 14.0482 7.65829C15.2136 7.66391 16.3599 7.95753 17.3878 8.51364C18.4156 9.06975 19.2939 9.87154 19.9464 10.8494C20.04 10.955 20.0917 11.0919 20.0917 11.2337C20.0917 11.3756 20.04 11.5125 19.9464 11.618C19.2947 12.5984 18.4172 13.4034 17.3897 13.9635C16.3621 14.5237 15.2154 14.8221 14.0485 14.833ZM16.6158 11.2754C16.6279 10.7518 16.4856 10.2364 16.2072 9.79501C15.9287 9.35363 15.5266 9.00632 15.0524 8.7974C14.5781 8.58849 14.0531 8.52744 13.5445 8.62207C13.0358 8.7167 12.5665 8.96272 12.1965 9.3287C11.8265 9.69468 11.5726 10.164 11.4672 10.6768C11.3617 11.1896 11.4096 11.7226 11.6046 12.2077C11.7997 12.6928 12.133 13.1081 12.5621 13.4005C12.9913 13.6928 13.4967 13.8491 14.0138 13.8492C14.6935 13.8494 15.3463 13.5802 15.8326 13.0992C16.3189 12.6183 16.6 11.9637 16.6158 11.2754Z" fill="white"/>
<path d="M14.0224 22.506C13.5181 22.4973 13.0276 22.3379 12.6125 22.0478C12.1973 21.7576 11.8762 21.3497 11.6893 20.8752C11.5024 20.4008 11.4581 19.881 11.562 19.3811C11.6659 18.8812 11.9134 18.4236 12.2734 18.0658C12.6333 17.7079 13.0896 17.4658 13.585 17.3698C14.0804 17.2739 14.5928 17.3283 15.0577 17.5263C15.5226 17.7244 15.9194 18.0571 16.1981 18.4828C16.4769 18.9086 16.6252 19.4082 16.6244 19.919C16.6233 20.2625 16.5549 20.6024 16.4232 20.9189C16.2914 21.2354 16.0989 21.5223 15.8569 21.7629C15.6149 22.0035 15.3281 22.1931 15.0132 22.3207C14.6983 22.4482 14.3615 22.5112 14.0224 22.506Z" fill="white"/>
<path d="M24.6875 19.3744V12.4648H25.9392V18.3251H28.9823V19.3744H24.6875Z" fill="white"/>
<path d="M32.0851 19.4756C31.579 19.4756 31.1405 19.3643 30.7693 19.1416C30.3982 18.9189 30.1103 18.6074 29.9057 18.207C29.7032 17.8067 29.602 17.3389 29.602 16.8035C29.602 16.2682 29.7032 15.7993 29.9057 15.3967C30.1103 14.9941 30.3982 14.6814 30.7693 14.4588C31.1405 14.2361 31.579 14.1248 32.0851 14.1248C32.5912 14.1248 33.0298 14.2361 33.4009 14.4588C33.772 14.6814 34.0588 14.9941 34.2612 15.3967C34.4659 15.7993 34.5682 16.2682 34.5682 16.8035C34.5682 17.3389 34.4659 17.8067 34.2612 18.207C34.0588 18.6074 33.772 18.9189 33.4009 19.1416C33.0298 19.3643 32.5912 19.4756 32.0851 19.4756ZM32.0919 18.4972C32.3663 18.4972 32.5957 18.4218 32.7801 18.2711C32.9645 18.1182 33.1017 17.9135 33.1917 17.6571C33.2839 17.4007 33.33 17.1151 33.33 16.8002C33.33 16.483 33.2839 16.1963 33.1917 15.9399C33.1017 15.6812 32.9645 15.4754 32.7801 15.3224C32.5957 15.1695 32.3663 15.093 32.0919 15.093C31.8107 15.093 31.5768 15.1695 31.3901 15.3224C31.2057 15.4754 31.0674 15.6812 30.9751 15.9399C30.8852 16.1963 30.8402 16.483 30.8402 16.8002C30.8402 17.1151 30.8852 17.4007 30.9751 17.6571C31.0674 17.9135 31.2057 18.1182 31.3901 18.2711C31.5768 18.4218 31.8107 18.4972 32.0919 18.4972Z" fill="white"/>
<path d="M37.6685 21.4256C37.2299 21.4256 36.8531 21.366 36.5383 21.2468C36.2234 21.1299 35.9703 20.9724 35.7792 20.7745C35.588 20.5766 35.4553 20.3573 35.3811 20.1166L36.4809 19.8501C36.5304 19.9513 36.6024 20.0514 36.6968 20.1504C36.7913 20.2516 36.9184 20.3348 37.0781 20.4C37.24 20.4675 37.4436 20.5012 37.6887 20.5012C38.0351 20.5012 38.3219 20.4169 38.549 20.2482C38.7762 20.0818 38.8898 19.8073 38.8898 19.425V18.4432H38.8291C38.7661 18.5692 38.6739 18.6985 38.5524 18.8312C38.4332 18.9639 38.2746 19.0752 38.0767 19.1652C37.881 19.2552 37.6347 19.3002 37.3378 19.3002C36.9397 19.3002 36.5787 19.2068 36.2549 19.0201C35.9332 18.8312 35.6768 18.55 35.4856 18.1767C35.2967 17.8011 35.2022 17.331 35.2022 16.7664C35.2022 16.1974 35.2967 15.7172 35.4856 15.3258C35.6768 14.9322 35.9344 14.6342 36.2582 14.4318C36.5821 14.2271 36.9431 14.1248 37.3412 14.1248C37.6449 14.1248 37.8945 14.1765 38.0902 14.2799C38.2881 14.3812 38.4456 14.5037 38.5625 14.6477C38.6795 14.7894 38.7683 14.9232 38.8291 15.0492H38.8965V14.1922H40.101V19.4587C40.101 19.9018 39.9953 20.2684 39.7838 20.5586C39.5724 20.8487 39.2834 21.0658 38.9168 21.2097C38.5502 21.3537 38.1341 21.4256 37.6685 21.4256ZM37.6786 18.342C37.9373 18.342 38.1577 18.279 38.3399 18.1531C38.522 18.0271 38.6604 17.846 38.7548 17.6099C38.8493 17.3737 38.8965 17.0903 38.8965 16.7597C38.8965 16.4336 38.8493 16.1479 38.7548 15.9027C38.6626 15.6576 38.5254 15.4675 38.3432 15.3326C38.1633 15.1954 37.9418 15.1268 37.6786 15.1268C37.4064 15.1268 37.1793 15.1976 36.9971 15.3393C36.8149 15.481 36.6777 15.6756 36.5855 15.923C36.4933 16.1681 36.4472 16.447 36.4472 16.7597C36.4472 17.0768 36.4933 17.3546 36.5855 17.593C36.68 17.8292 36.8183 18.0136 37.0005 18.1463C37.1849 18.2768 37.4109 18.342 37.6786 18.342Z" fill="white"/>
<path d="M43.4231 19.4756C42.917 19.4756 42.4784 19.3643 42.1073 19.1416C41.7362 18.9189 41.4483 18.6074 41.2436 18.207C41.0412 17.8067 40.94 17.3389 40.94 16.8035C40.94 16.2682 41.0412 15.7993 41.2436 15.3967C41.4483 14.9941 41.7362 14.6814 42.1073 14.4588C42.4784 14.2361 42.917 14.1248 43.4231 14.1248C43.9291 14.1248 44.3677 14.2361 44.7388 14.4588C45.1099 14.6814 45.3967 14.9941 45.5991 15.3967C45.8038 15.7993 45.9062 16.2682 45.9062 16.8035C45.9062 17.3389 45.8038 17.8067 45.5991 18.207C45.3967 18.6074 45.1099 18.9189 44.7388 19.1416C44.3677 19.3643 43.9291 19.4756 43.4231 19.4756ZM43.4298 18.4972C43.7042 18.4972 43.9336 18.4218 44.1181 18.2711C44.3025 18.1182 44.4397 17.9135 44.5297 17.6571C44.6219 17.4007 44.668 17.1151 44.668 16.8002C44.668 16.483 44.6219 16.1963 44.5297 15.9399C44.4397 15.6812 44.3025 15.4754 44.1181 15.3224C43.9336 15.1695 43.7042 15.093 43.4298 15.093C43.1487 15.093 42.9147 15.1695 42.7281 15.3224C42.5436 15.4754 42.4053 15.6812 42.3131 15.9399C42.2231 16.1963 42.1781 16.483 42.1781 16.8002C42.1781 17.1151 42.2231 17.4007 42.3131 17.6571C42.4053 17.9135 42.5436 18.1182 42.7281 18.2711C42.9147 18.4218 43.1487 18.4972 43.4298 18.4972Z" fill="white"/>
<path d="M50.8485 15.562L49.7352 15.6834C49.7037 15.571 49.6486 15.4653 49.5698 15.3663C49.4934 15.2673 49.3899 15.1875 49.2595 15.1268C49.129 15.066 48.9693 15.0357 48.7804 15.0357C48.5262 15.0357 48.3125 15.0908 48.1394 15.201C47.9684 15.3112 47.8841 15.454 47.8863 15.6295C47.8841 15.7802 47.9392 15.9027 48.0516 15.9972C48.1663 16.0917 48.3553 16.1693 48.6184 16.23L49.5024 16.4189C49.9927 16.5246 50.3571 16.6922 50.5955 16.9216C50.8361 17.151 50.9576 17.4513 50.9598 17.8224C50.9576 18.1486 50.862 18.4365 50.6731 18.6861C50.4864 18.9335 50.2266 19.127 49.8937 19.2664C49.5608 19.4059 49.1785 19.4756 48.7466 19.4756C48.1124 19.4756 47.6018 19.3429 47.2149 19.0775C46.8281 18.8098 46.5975 18.4376 46.5233 17.9608L47.7143 17.846C47.7682 18.08 47.883 18.2565 48.0584 18.3757C48.2338 18.4949 48.4621 18.5545 48.7433 18.5545C49.0334 18.5545 49.2662 18.4949 49.4416 18.3757C49.6193 18.2565 49.7082 18.1092 49.7082 17.9338C49.7082 17.7853 49.6508 17.6627 49.5361 17.566C49.4236 17.4693 49.2482 17.3951 49.0098 17.3434L48.1259 17.1578C47.6288 17.0543 47.2611 16.88 47.0226 16.6349C46.7842 16.3874 46.6661 16.0748 46.6684 15.6969C46.6661 15.3776 46.7527 15.1009 46.9282 14.867C47.1059 14.6308 47.3521 14.4486 47.667 14.3204C47.9842 14.19 48.3497 14.1248 48.7635 14.1248C49.3708 14.1248 49.8487 14.2541 50.1974 14.5127C50.5482 14.7714 50.7653 15.1211 50.8485 15.562Z" fill="white"/>
</svg>
