<svg width="40" height="40" viewBox="0 0 40 40" fill="none" xmlns="http://www.w3.org/2000/svg">
<g clip-path="url(#clip0_274_4275)">
<path d="M31.0278 33.2414H8.30322V19.5073H31.0064L31.0278 33.2414ZM19.6404 20.6091C17.7008 20.6111 15.7917 21.0823 14.0826 21.9809C12.3735 22.8795 10.9172 24.1777 9.84302 25.7603C9.70091 25.921 9.62269 26.1266 9.62269 26.3392C9.62269 26.5519 9.70091 26.7575 9.84302 26.9182C10.9241 28.4935 12.3831 29.7847 14.0922 30.6786C15.8012 31.5725 17.708 32.0418 19.6453 32.0453C21.5825 32.0487 23.4911 31.5863 25.2034 30.6985C26.9158 29.8107 28.3796 28.5247 29.4665 26.9533C29.6216 26.7835 29.7073 26.5636 29.7073 26.3357C29.7073 26.1079 29.6216 25.888 29.4665 25.7181C28.3826 24.142 26.919 22.852 25.2051 21.9621C23.4913 21.0722 21.58 20.6099 19.6404 20.6161V20.6091Z" fill="black"/>
<path d="M19.7049 18.223C17.7777 18.2192 15.8802 17.7575 14.175 16.8774C12.4699 15.9974 11.008 14.7252 9.91466 13.1701C9.73237 12.9801 9.63088 12.7291 9.63088 12.4683C9.63088 12.2075 9.73237 11.9565 9.91466 11.7665C11.0074 10.2141 12.4702 8.94656 14.1763 8.07387C15.8823 7.20118 17.78 6.74975 19.7044 6.75874C21.6289 6.76773 23.5221 7.23688 25.2196 8.12546C26.917 9.01405 28.3675 10.2952 29.4451 11.8577C29.5996 12.0264 29.685 12.2451 29.685 12.4718C29.685 12.6985 29.5996 12.9171 29.4451 13.0858C28.3688 14.6523 26.9197 15.9386 25.2227 16.8336C23.5258 17.7286 21.632 18.2055 19.7049 18.223ZM23.9448 12.5384C23.9647 11.7017 23.7297 10.8782 23.2698 10.1729C22.8099 9.46765 22.146 8.9127 21.3627 8.57888C20.5795 8.24506 19.7125 8.14752 18.8725 8.29873C18.0324 8.44994 17.2574 8.84303 16.6463 9.42781C16.0353 10.0126 15.616 10.7625 15.4419 11.5819C15.2678 12.4013 15.3469 13.2529 15.6689 14.0281C15.991 14.8032 16.5415 15.4667 17.2502 15.9339C17.9589 16.4011 18.7935 16.6507 19.6476 16.651C20.7701 16.6513 21.8482 16.2211 22.6513 15.4526C23.4543 14.684 23.9186 13.6381 23.9448 12.5384Z" fill="black"/>
<path d="M19.6618 30.4832C18.8289 30.4694 18.0189 30.2146 17.3333 29.751C16.6478 29.2874 16.1173 28.6356 15.8087 27.8775C15.5001 27.1194 15.4269 26.2888 15.5986 25.4901C15.7702 24.6914 16.1789 23.9602 16.7733 23.3884C17.3677 22.8166 18.1213 22.4298 18.9394 22.2764C19.7576 22.123 20.6037 22.21 21.3715 22.5264C22.1393 22.8429 22.7946 23.3746 23.2549 24.0548C23.7153 24.735 23.9602 25.5334 23.9589 26.3496C23.9571 26.8985 23.8441 27.4415 23.6265 27.9472C23.4089 28.453 23.0911 28.9114 22.6914 29.2959C22.2917 29.6804 21.8181 29.9833 21.298 30.1871C20.778 30.3909 20.2218 30.4916 19.6618 30.4832Z" fill="black"/>
</g>
<defs>
<clipPath id="clip0_274_4275">
<rect width="40" height="40" fill="white"/>
</clipPath>
</defs>
</svg>
