<svg width="71" height="80" viewBox="0 0 71 80" fill="none" xmlns="http://www.w3.org/2000/svg">
<path d="M70.0208 80H0.969727V38.5117H69.9555L70.0208 80ZM35.4191 41.84C29.5254 41.846 23.7243 43.2695 18.5309 45.984C13.3376 48.6985 8.91249 52.6202 5.64856 57.4009C5.21675 57.8865 4.97905 58.5074 4.97905 59.1498C4.97905 59.7923 5.21675 60.4133 5.64856 60.8988C8.93348 65.6575 13.3669 69.558 18.56 72.2584C23.7531 74.9587 29.5471 76.3763 35.4337 76.3868C41.3203 76.3972 47.1196 75.0003 52.3227 72.3184C57.5259 69.6366 61.9739 65.7517 65.2766 61.0048C65.7477 60.4918 66.0082 59.8276 66.0082 59.1392C66.0082 58.4509 65.7477 57.7867 65.2766 57.2736C61.983 52.5125 57.5356 48.6155 52.3279 45.9273C47.1202 43.2391 41.3127 41.8425 35.4191 41.8612V41.84Z" fill="white"/>
<path d="M35.615 34.6319C29.759 34.6206 23.9931 33.2258 18.8118 30.5673C13.6306 27.9088 9.1884 24.0659 5.86624 19.368C5.31234 18.794 5.00394 18.0358 5.00394 17.248C5.00394 16.4602 5.31234 15.702 5.86624 15.128C9.18655 10.4385 13.6316 6.60944 18.8156 3.9732C23.9996 1.33696 29.7658 -0.0267592 35.6135 0.000397793C41.4612 0.0275548 47.2138 1.44479 52.3718 4.12905C57.5297 6.81332 61.9371 10.6835 65.2114 15.4035C65.6809 15.9131 65.9406 16.5738 65.9406 17.2585C65.9406 17.9433 65.6809 18.6039 65.2114 19.1135C61.9411 23.8457 57.5377 27.7313 52.3813 30.435C47.225 33.1386 41.4706 34.5791 35.615 34.6319ZM48.4981 17.4599C48.5587 14.9323 47.8447 12.4445 46.4473 10.314C45.0498 8.18358 43.0323 6.50717 40.6524 5.49876C38.2725 4.49034 35.638 4.19568 33.0854 4.65245C30.5328 5.10922 28.1779 6.2967 26.3212 8.06323C24.4645 9.82976 23.1903 12.0952 22.6613 14.5704C22.1323 17.0456 22.3725 19.6182 23.3512 21.9598C24.3299 24.3014 26.0027 26.3058 28.156 27.7171C30.3094 29.1283 32.8456 29.8825 35.4409 29.8832C38.8517 29.8841 42.1276 28.5847 44.5677 26.2631C47.0078 23.9414 48.4186 20.7818 48.4981 17.4599Z" fill="white"/>
<path d="M35.4838 71.668C32.9532 71.6262 30.4917 70.8568 28.4086 69.4563C26.3255 68.0558 24.7138 66.0868 23.7759 63.7966C22.838 61.5065 22.6159 58.9975 23.1373 56.5847C23.6588 54.172 24.9007 51.9632 26.7069 50.2359C28.5131 48.5086 30.803 47.3399 33.289 46.8766C35.7749 46.4133 38.3459 46.6761 40.679 47.632C43.0121 48.5878 45.0032 50.1941 46.402 52.249C47.8008 54.3038 48.545 56.7156 48.5411 59.1813C48.5355 60.8392 48.1923 62.4796 47.5312 64.0074C46.87 65.5351 45.9042 66.9199 44.6896 68.0813C43.4751 69.2428 42.0361 70.1579 40.4558 70.7736C38.8756 71.3893 37.1856 71.6933 35.4838 71.668Z" fill="white"/>
</svg>
