<svg width="58" height="58" viewBox="0 0 58 58" fill="none" xmlns="http://www.w3.org/2000/svg">
<rect width="58" height="58" rx="29" fill="white"/>
<path d="M23 39V19H29.737C31.2013 19 32.4164 19.2669 33.3823 19.8008C34.3544 20.3346 35.0804 21.0736 35.5603 22.0176C36.0402 22.9551 36.2802 24.0391 36.2802 25.2695C36.2802 26.4935 36.0371 27.571 35.5511 28.502C35.0712 29.4264 34.3452 30.1458 33.3731 30.6602C32.4072 31.1745 31.192 31.4316 29.7278 31.4316H24.6243V28.834H29.4693C30.3922 28.834 31.1428 28.694 31.7212 28.4141C32.3056 28.1341 32.7332 27.7272 33.004 27.1934C33.2747 26.6595 33.41 26.0182 33.41 25.2695C33.41 24.5143 33.2716 23.86 32.9947 23.3066C32.724 22.7533 32.2964 22.3301 31.7119 22.0371C31.1336 21.7376 30.3738 21.5879 29.4324 21.5879H25.8517V39H23ZM32.3303 29.9766L37 39H33.7515L29.174 29.9766H32.3303Z" fill="black"/>
</svg>
