<svg width="58" height="58" viewBox="0 0 58 58" fill="none" xmlns="http://www.w3.org/2000/svg">
<path fill-rule="evenodd" clip-rule="evenodd" d="M33.6479 28.7455C30.3452 28.9358 28.2754 28.1665 24.9723 28.3573C24.1531 28.4033 23.3396 28.522 22.5412 28.7121C23.0288 22.6037 27.3519 17.2602 33.2306 16.9205C36.8381 16.7123 40.4439 18.9397 40.6394 22.5555C40.8319 26.1094 38.1221 28.487 33.6483 28.7451L33.6479 28.7455ZM24.779 41.24C21.323 41.4352 17.8692 39.3501 17.6817 35.9665C17.4972 32.6404 20.0937 30.4152 24.3794 30.1736C27.543 29.9953 29.5261 30.7157 32.6897 30.5369C33.4741 30.4939 34.2533 30.3828 35.0186 30.2048C34.5523 35.9214 30.411 40.9226 24.779 41.24ZM28.9999 1.4449C13.7812 1.44446 1.44434 13.7812 1.44434 29C1.44434 44.2189 13.7812 56.5556 28.9999 56.5556C44.2186 56.5556 56.5554 44.2184 56.5554 29C56.5554 13.7816 44.2186 1.44446 28.9999 1.44446" fill="white"/>
</svg>
