<svg width="57" height="58" viewBox="0 0 57 58" fill="none" xmlns="http://www.w3.org/2000/svg">
<g clip-path="url(#clip0_603_7836)">
<path d="M0 29C0 12.9837 12.8112 0 28.6147 0C44.4079 0 56.61 12.7424 56.9815 28.8744C56.9815 34.0217 55.2473 38.3527 50.9119 42.4328C47.2482 45.8808 41.0019 46.3874 36.4191 43.8139C33.1479 41.9015 30.627 37.8289 28.4908 34.8377L24.5268 40.9892H15.9796L24.0314 28.8739L16.2274 16.948H25.0223L28.5528 23.0996L32.0211 16.948H40.8782L32.8265 28.8744C32.8265 28.8744 36.6665 34.8377 38.7722 37.1602C40.8782 39.4828 44.7182 39.5455 47.1955 37.0346C49.9195 34.274 50.5292 32.0759 50.5403 28.8744C50.5828 16.4828 40.8709 6.52813 28.6147 6.52813C16.3687 6.52813 6.44139 16.5891 6.44139 29C6.44139 41.4108 16.3687 51.472 28.6147 51.472C30.3085 51.472 31.932 51.3277 33.5077 50.9696L34.8704 57.3096C32.6282 57.819 30.8169 58 28.6147 58C12.8112 58 0 45.0162 0 29Z" fill="white"/>
</g>
<defs>
<clipPath id="clip0_603_7836">
<rect width="57" height="58" fill="white"/>
</clipPath>
</defs>
</svg>
